<?xml version="1.0" encoding="utf-8"?>
<!-- Generator: Adobe Illustrator 25.4.1, SVG Export Plug-In . SVG Version: 6.00 Build 0)  -->
<svg version="1.1" id="Ebene_1" xmlns="http://www.w3.org/2000/svg" xmlns:xlink="http://www.w3.org/1999/xlink" x="0px" y="0px"
	 viewBox="0 0 136.01 243.21" style="enable-background:new 0 0 136.01 243.21;" xml:space="preserve">
<style type="text/css">
	.st0{fill:#555555;}
</style>
<g id="Ebene_1_00000183234296063447184640000004088662785477118363_">
	<polygon class="st0" points="107.52,33.09 107.52,28.05 83.83,28.05 83.83,33.09 92.75,33.09 92.75,56.54 98.6,56.54 98.6,33.09 	
		"/>
	<path class="st0" d="M74.02,28.05v11.17H62.4v-6.88l12.62-12.83l-0.74-0.73L48.64,44.85c-0.9-1.37-2.4-2.27-4.61-2.76v-0.08
		c3.3-1.24,4.94-3.36,4.94-6.64c0-4.36-3.27-7.32-10.31-7.32h-10.2v28.49h8.68L25.13,68.75l0.74,0.73l30.67-31.19v18.25h5.85V44.26
		h11.63v12.29h5.85v-28.5H74.02z M34.31,32.85h4.42c3.22,0,4.62,1.04,4.62,3.4c0,2.44-1.47,3.52-4.9,3.52h-4.14V32.85z M34.31,44.42
		h4.18c3.74,0,5.22,1.16,5.22,3.72c0,2.4-1.43,3.56-5.06,3.56h-4.34V44.42z"/>
	<g>
		<path class="st0" d="M90.87,70.49h10.29v4.1c0,2.08-0.91,3.21-2.6,3.21c-1.16,0-1.88-0.6-2.25-1.67
			c-0.25,1.39-1.16,2.08-2.51,2.08c-1.97,0-2.93-1.33-2.93-3.47V70.49z M91.95,71.85v2.78c0,1.47,0.59,2.19,1.87,2.19
			c1.21,0,1.87-0.67,1.87-2.1v-2.86h-3.74C91.95,71.86,91.95,71.85,91.95,71.85z M96.78,71.85v2.71c0,1.24,0.59,1.88,1.68,1.88
			c1.09,0,1.61-0.66,1.61-1.95v-2.64H96.78z"/>
		<path class="st0" d="M94.45,87.07V81.3c-1.92,0.08-2.77,0.91-2.77,2.29c0,1.04,0.48,1.75,1.45,2.13v1.29
			c-1.6-0.46-2.48-1.73-2.48-3.42c0-2.26,1.46-3.63,4.08-3.63c2.65,0,4.06,1.58,4.06,3.65c0,2.13-1.38,3.47-3.97,3.47h-0.37
			C94.45,87.08,94.45,87.07,94.45,87.07z M95.36,85.76c1.6-0.07,2.41-0.8,2.41-2.16c0-1.39-0.94-2.13-2.41-2.29V85.76z"/>
		<path class="st0" d="M98.56,93.26h-1.33v-0.53c0-0.9-0.46-1.63-1.6-2.09h-4.76v-1.32h7.69v1.17l-1.49,0.13
			c0.91,0.45,1.52,1.19,1.52,2.16C98.59,92.98,98.58,93.15,98.56,93.26z"/>
		<path class="st0" d="M90.87,95.16h10.71v1.32H90.87V95.16z"/>
		<path class="st0" d="M90.87,99.23h7.69v1.32h-7.69V99.23z M101.58,100.58h-1.56v-1.39h1.56V100.58z"/>
		<path class="st0" d="M95.85,109.7h-4.98v-1.32h4.91c1.33,0,1.92-0.55,1.92-1.59c0-0.95-0.55-1.64-1.21-2.18h-5.63v-1.32h7.69v1.21
			l-0.97,0.08c0.76,0.65,1.19,1.43,1.19,2.48C98.79,108.83,97.57,109.7,95.85,109.7z"/>
		<path class="st0" d="M94.45,118.99v-5.77c-1.92,0.08-2.77,0.91-2.77,2.29c0,1.04,0.48,1.75,1.45,2.13v1.29
			c-1.6-0.46-2.48-1.73-2.48-3.42c0-2.26,1.46-3.63,4.08-3.63c2.65,0,4.06,1.58,4.06,3.65c0,2.13-1.38,3.47-3.97,3.47h-0.37
			C94.45,119,94.45,118.99,94.45,118.99z M95.36,117.69c1.6-0.07,2.41-0.8,2.41-2.16c0-1.39-0.94-2.13-2.41-2.29V117.69z"/>
		<path class="st0" d="M98.56,125.19h-1.33v-0.53c0-0.9-0.46-1.63-1.6-2.09h-4.76v-1.32h7.69v1.16l-1.49,0.13
			c0.91,0.45,1.52,1.19,1.52,2.16C98.59,124.91,98.58,125.08,98.56,125.19z"/>
		<path class="st0" d="M90.87,131.59h10.29v1.36h-4.35v5.4h4.35v1.38H90.87v-1.38h4.79v-5.4h-4.79V131.59z"/>
		<path class="st0" d="M94.7,142.06c2.62,0,4.08,1.66,4.08,3.77s-1.46,3.76-4.08,3.76c-2.6,0-4.06-1.64-4.06-3.76
			C90.65,143.7,92.11,142.06,94.7,142.06z M94.7,148.27c1.99,0,3.02-1.05,3.02-2.44c0-1.4-1.02-2.46-3.02-2.46
			c-1.97,0-3,1.05-3,2.46C91.7,147.22,92.74,148.27,94.7,148.27z"/>
		<path class="st0" d="M94.7,151.34c2.54,0,4.08,1.5,4.08,3.7c0,1.84-0.88,3-2.43,3.3v-1.32c0.86-0.24,1.36-0.87,1.36-1.98
			c0-1.39-1.05-2.38-3.02-2.38c-1.99,0-3,0.98-3,2.34c0,0.94,0.45,1.77,1.43,2.05v1.29c-1.61-0.35-2.48-1.66-2.48-3.34
			C90.65,152.77,92.12,151.34,94.7,151.34z"/>
		<path class="st0" d="M95.85,166.85h-4.98v-1.32h4.91c1.33,0,1.92-0.55,1.92-1.59c0-0.95-0.55-1.64-1.21-2.17h-5.63v-1.32h10.71
			v1.32h-3.96c0.74,0.63,1.17,1.42,1.17,2.46C98.79,165.98,97.57,166.85,95.85,166.85z"/>
		<path class="st0" d="M93.13,168.85v1.32c-1.05,0.11-1.47,0.77-1.47,2.06c0,1.18,0.52,1.71,1.22,1.71c0.66,0,0.98-0.45,1.22-1.42
			l0.35-1.4c0.29-1.21,0.93-1.98,2.1-1.98c1.29,0,2.23,1.16,2.23,2.96c0,1.78-0.74,2.89-2.43,3.03v-1.28
			c1.05-0.11,1.42-0.7,1.42-1.75c0-1.07-0.49-1.64-1.15-1.64s-0.94,0.41-1.15,1.19l-0.35,1.42c-0.31,1.26-0.93,2.19-2.2,2.19
			c-1.32,0-2.27-1.09-2.27-3.03C90.65,170.15,91.48,169.01,93.13,168.85z"/>
		<path class="st0" d="M94.7,176.82c2.54,0,4.08,1.5,4.08,3.7c0,1.84-0.88,3-2.43,3.3v-1.32c0.86-0.24,1.36-0.87,1.36-1.98
			c0-1.39-1.05-2.38-3.02-2.38c-1.99,0-3,0.98-3,2.34c0,0.94,0.45,1.77,1.43,2.05v1.29c-1.61-0.35-2.48-1.66-2.48-3.34
			C90.65,178.25,92.12,176.82,94.7,176.82z"/>
		<path class="st0" d="M95.85,192.33h-4.98v-1.32h4.91c1.33,0,1.92-0.55,1.92-1.59c0-0.95-0.55-1.64-1.21-2.18h-5.63v-1.32h10.71
			v1.32h-3.96c0.74,0.63,1.17,1.42,1.17,2.46C98.79,191.46,97.57,192.33,95.85,192.33z"/>
		<path class="st0" d="M98.56,199.96v1.32h-7.69v-1.21l0.97-0.08c-0.76-0.63-1.19-1.4-1.19-2.46c0-1.71,1.21-2.58,2.93-2.58h4.98
			v1.32h-4.93c-1.33,0-1.91,0.55-1.91,1.54c0,0.93,0.53,1.61,1.19,2.15L98.56,199.96L98.56,199.96z"/>
		<path class="st0" d="M90.87,204.03h10.71v1.32H90.87V204.03z"/>
		<path class="st0" d="M94.45,214.72v-5.77c-1.92,0.08-2.77,0.91-2.77,2.29c0,1.04,0.48,1.75,1.45,2.13v1.29
			c-1.6-0.46-2.48-1.73-2.48-3.42c0-2.26,1.46-3.63,4.08-3.63c2.65,0,4.06,1.59,4.06,3.65c0,2.13-1.38,3.47-3.97,3.47L94.45,214.72
			L94.45,214.72z M95.36,213.41c1.6-0.07,2.41-0.8,2.41-2.16c0-1.39-0.94-2.13-2.41-2.29V213.41z"/>
		<path class="st0" d="M83.72,73.34c0-0.95-0.35-1.32-1.28-1.32h-0.73v1.85h-1.05v-1.85h-6.64V70.7h6.64v-1.22h1.05v1.22h0.79
			c1.63,0,2.3,1.03,2.3,2.58c0,0.36-0.03,0.7-0.07,0.93h-1.01V73.34z"/>
		<path class="st0" d="M81.71,80.59v1.32h-7.69V80.7l0.97-0.08c-0.76-0.63-1.19-1.4-1.19-2.46c0-1.71,1.21-2.58,2.93-2.58h4.98v1.32
			h-4.93c-1.33,0-1.91,0.55-1.91,1.54c0,0.93,0.53,1.61,1.19,2.15H81.71z M84.58,77.97h-1.4v-1.29h1.4V77.97z M84.58,80.82h-1.4
			v-1.28h1.4V80.82z"/>
		<path class="st0" d="M81.71,88.61h-1.33v-0.53c0-0.9-0.46-1.63-1.6-2.09h-4.76v-1.32h7.69v1.16l-1.49,0.13
			c0.91,0.45,1.52,1.19,1.52,2.16C81.74,88.33,81.73,88.5,81.71,88.61z"/>
		<path class="st0" d="M84.31,101.57h-1.14v-3.24h-9.15v-1.36h9.15v-3.24h1.14V101.57z"/>
		<path class="st0" d="M77.6,109.14v-5.77c-1.92,0.08-2.77,0.91-2.77,2.29c0,1.04,0.48,1.75,1.45,2.13v1.29
			c-1.6-0.46-2.48-1.73-2.48-3.42c0-2.26,1.46-3.63,4.08-3.63c2.65,0,4.06,1.59,4.06,3.65c0,2.13-1.38,3.47-3.97,3.47H77.6V109.14z
			 M78.51,107.83c1.6-0.07,2.41-0.8,2.41-2.16c0-1.39-0.94-2.13-2.41-2.29V107.83z"/>
		<path class="st0" d="M77.85,110.88c2.54,0,4.08,1.5,4.08,3.7c0,1.84-0.88,3-2.43,3.3v-1.32c0.86-0.24,1.36-0.87,1.36-1.98
			c0-1.39-1.05-2.38-3.02-2.38c-1.99,0-3,0.98-3,2.34c0,0.94,0.45,1.77,1.43,2.05v1.29c-1.61-0.35-2.48-1.66-2.48-3.34
			C73.8,112.32,75.27,110.88,77.85,110.88z"/>
		<path class="st0" d="M79,126.4h-4.98v-1.32h4.91c1.33,0,1.92-0.55,1.92-1.59c0-0.95-0.55-1.64-1.21-2.17h-5.63V120h10.71v1.32
			h-3.96c0.74,0.63,1.17,1.42,1.17,2.46C81.94,125.53,80.72,126.4,79,126.4z"/>
		<path class="st0" d="M79,135.48h-4.98v-1.32h4.91c1.33,0,1.92-0.55,1.92-1.59c0-0.95-0.55-1.64-1.21-2.18h-5.63v-1.32h7.69v1.21
			l-0.97,0.08c0.76,0.65,1.19,1.43,1.19,2.48C81.94,134.61,80.72,135.48,79,135.48z"/>
		<path class="st0" d="M74.02,138.17h7.69v1.32h-7.69V138.17z M84.73,139.51h-1.56v-1.39h1.56V139.51z"/>
		<path class="st0" d="M74.02,147.33l3.85-2.6l-1.16-1.19h-2.68v-1.3h10.71v1.3h-6.51l3.49,3.58v1.54l-2.95-3.02l-4.74,3.14
			L74.02,147.33L74.02,147.33z"/>
	</g>
</g>
</svg>
