<?xml version="1.0" encoding="utf-8"?>
<!-- Generator: Adobe Illustrator 25.4.1, SVG Export Plug-In . SVG Version: 6.00 Build 0)  -->
<svg version="1.1" id="Ebene_1" xmlns="http://www.w3.org/2000/svg" xmlns:xlink="http://www.w3.org/1999/xlink" x="0px" y="0px"
	 viewBox="0 0 199.43 85.04" style="enable-background:new 0 0 199.43 85.04;" xml:space="preserve">
<style type="text/css">
	.st0{fill:#555555;}
</style>
<g id="Ebene_2_00000054233584316727850310000011320713990580260257_">
	<g>
		<path class="st0" d="M114.97,34.83v-6.78h2.7c1.37,0,2.12,0.6,2.12,1.71c0,0.77-0.4,1.24-1.1,1.48c0.92,0.17,1.37,0.77,1.37,1.66
			c0,1.29-0.88,1.93-2.28,1.93H114.97z M115.87,30.93h1.79c0.81,0,1.24-0.39,1.24-1.11c0-0.72-0.43-1.06-1.29-1.06h-1.74V30.93z
			 M115.87,34.11h1.83c0.97,0,1.44-0.39,1.44-1.23c0-0.8-0.44-1.23-1.39-1.23h-1.89L115.87,34.11L115.87,34.11z"/>
		<path class="st0" d="M125.96,32.29h-4.01c0.06,1.39,0.64,2,1.62,2c0.71,0,1.2-0.34,1.48-0.96h0.85c-0.33,1.04-1.16,1.65-2.33,1.65
			c-1.55,0-2.51-1.02-2.51-2.87c0-1.87,1.09-2.86,2.51-2.86c1.47,0,2.4,0.97,2.4,2.79v0.25H125.96z M125.1,31.68
			c-0.06-1.17-0.56-1.77-1.54-1.77s-1.52,0.68-1.61,1.77H125.1z"/>
		<path class="st0" d="M130.09,29.41v0.87h-0.37c-0.64,0-1.15,0.35-1.46,1.15v3.4h-0.87v-5.42h0.76l0.08,1.07
			c0.31-0.66,0.84-1.09,1.51-1.09C129.9,29.39,130.02,29.4,130.09,29.41z"/>
		<path class="st0" d="M132.84,34.1v0.72c-0.09,0.03-0.25,0.05-0.39,0.05c-0.77,0-1.3-0.33-1.3-1.25v-5.85h0.87v5.78
			c0,0.39,0.18,0.55,0.58,0.55H132.84z"/>
		<path class="st0" d="M134.94,27.37v1.05h-0.92v-1.05H134.94z M134.06,34.83v-5.42h0.87v5.42H134.06z"/>
		<path class="st0" d="M141.11,31.3v3.52h-0.87v-3.47c0-0.87-0.31-1.4-1.13-1.4c-0.68,0-1.16,0.4-1.54,0.88v3.99h-0.87V29.4h0.8
			l0.06,0.7c0.44-0.54,0.99-0.86,1.73-0.86C140.51,29.25,141.11,30.1,141.11,31.3z"/>
		<path class="st0" d="M147.39,32.29h-4.01c0.06,1.39,0.64,2,1.62,2c0.71,0,1.2-0.34,1.48-0.96h0.85c-0.33,1.04-1.16,1.65-2.33,1.65
			c-1.55,0-2.51-1.02-2.51-2.87c0-1.87,1.09-2.86,2.51-2.86c1.47,0,2.4,0.97,2.4,2.79L147.39,32.29L147.39,32.29z M146.53,31.68
			c-0.06-1.17-0.56-1.77-1.54-1.77s-1.52,0.68-1.61,1.77H146.53z"/>
		<path class="st0" d="M151.52,29.41v0.87h-0.37c-0.64,0-1.15,0.35-1.46,1.15v3.4h-0.87v-5.42h0.76l0.08,1.07
			c0.31-0.66,0.84-1.09,1.51-1.09C151.33,29.39,151.45,29.4,151.52,29.41z"/>
		<path class="st0" d="M114.97,45.45v-6.78h0.9v2.87h3.56v-2.87h0.91v6.78h-0.91V42.3h-3.56v3.15H114.97z"/>
		<path class="st0" d="M121.71,42.75c0-1.86,1.14-2.88,2.59-2.88c1.46,0,2.6,1.03,2.6,2.88c0,1.83-1.13,2.85-2.6,2.85
			S121.71,44.58,121.71,42.75z M126.03,42.75c0-1.43-0.74-2.17-1.73-2.17c-0.98,0-1.72,0.74-1.72,2.17c0,1.42,0.74,2.16,1.72,2.16
			C125.29,44.9,126.03,44.16,126.03,42.75z"/>
		<path class="st0" d="M127.97,42.75c0-1.79,1.04-2.88,2.55-2.88c1.29,0,2.01,0.65,2.23,1.6h-0.87c-0.19-0.53-0.56-0.9-1.36-0.9
			c-0.98,0-1.68,0.76-1.68,2.17c0,1.43,0.68,2.16,1.66,2.16c0.66,0,1.2-0.32,1.42-0.95h0.87c-0.25,1.05-1.14,1.65-2.28,1.65
			C128.95,45.59,127.97,44.57,127.97,42.75z"/>
		<path class="st0" d="M138.54,41.92v3.52h-0.87v-3.47c0-0.87-0.31-1.4-1.13-1.4c-0.68,0-1.16,0.4-1.54,0.88v3.99h-0.87v-7.06H135
			v2.32c0.44-0.55,0.99-0.84,1.71-0.84C137.94,39.87,138.54,40.72,138.54,41.92z"/>
		<path class="st0" d="M139.79,43.95h0.86c0.09,0.69,0.59,0.98,1.46,0.98c0.84,0,1.23-0.38,1.23-0.9c0-0.46-0.3-0.7-1-0.89
			l-0.98-0.25c-0.75-0.19-1.36-0.55-1.36-1.47c0-0.9,0.8-1.55,2.03-1.55c1.24,0,1.98,0.53,2.08,1.6h-0.85
			c-0.06-0.67-0.49-0.93-1.23-0.93c-0.76,0-1.17,0.36-1.17,0.84c0,0.56,0.39,0.7,0.84,0.83l0.98,0.26c0.84,0.22,1.52,0.61,1.52,1.55
			c0,0.92-0.77,1.58-2.1,1.58C140.65,45.59,139.9,44.98,139.79,43.95z"/>
		<path class="st0" d="M145.15,42.75c0-1.79,1.04-2.88,2.55-2.88c1.29,0,2.01,0.65,2.23,1.6h-0.87c-0.19-0.53-0.55-0.9-1.36-0.9
			c-0.98,0-1.68,0.76-1.68,2.17c0,1.43,0.68,2.16,1.66,2.16c0.66,0,1.2-0.32,1.42-0.95h0.87c-0.25,1.05-1.14,1.65-2.28,1.65
			C146.13,45.59,145.15,44.57,145.15,42.75z"/>
		<path class="st0" d="M155.72,41.92v3.52h-0.87v-3.47c0-0.87-0.32-1.4-1.13-1.4c-0.68,0-1.16,0.4-1.54,0.88v3.99h-0.87v-7.06h0.87
			v2.32c0.44-0.55,0.99-0.84,1.71-0.84C155.12,39.87,155.72,40.72,155.72,41.92z"/>
		<path class="st0" d="M160.89,40.03h0.87v5.42h-0.8l-0.06-0.71c-0.44,0.55-0.99,0.86-1.72,0.86c-1.18,0-1.78-0.84-1.78-2.05v-3.51
			h0.87v3.48c0,0.95,0.38,1.38,1.1,1.38c0.66,0,1.15-0.4,1.52-0.87V40.03z"/>
		<path class="st0" d="M165.18,44.73v0.72c-0.09,0.03-0.25,0.05-0.39,0.05c-0.77,0-1.29-0.33-1.29-1.25V38.4h0.87v5.78
			c0,0.39,0.18,0.56,0.58,0.56h0.23V44.73z"/>
		<path class="st0" d="M170.93,42.91h-4.01c0.06,1.39,0.64,2,1.62,2c0.71,0,1.2-0.34,1.48-0.96h0.85c-0.33,1.04-1.16,1.65-2.33,1.65
			c-1.55,0-2.51-1.02-2.51-2.87c0-1.87,1.09-2.86,2.51-2.86c1.47,0,2.4,0.97,2.4,2.79L170.93,42.91L170.93,42.91z M170.07,42.3
			c-0.06-1.17-0.56-1.77-1.54-1.77s-1.52,0.68-1.61,1.77H170.07z"/>
		<path class="st0" d="M116.98,50.02c-0.59,0-0.97,0.22-0.97,0.89v0.21h1.33v0.68h-1.29v4.74h-0.87V51.8h-0.85v-0.68h0.85v-0.25
			c0-1.06,0.69-1.52,1.77-1.52c0.28,0,0.5,0.02,0.65,0.05v0.62C117.6,50.02,116.98,50.02,116.98,50.02z"/>
		<path class="st0" d="M121.86,51.12h0.87v5.42h-0.8l-0.06-0.71c-0.44,0.55-0.99,0.86-1.72,0.86c-1.18,0-1.79-0.84-1.79-2.05v-3.52
			h0.87v3.48c0,0.95,0.38,1.38,1.1,1.38c0.66,0,1.15-0.4,1.52-0.87v-3.99H121.86z M120.04,49.21v0.92h-0.85v-0.92H120.04z
			 M121.92,49.21v0.92h-0.84v-0.92H121.92z"/>
		<path class="st0" d="M127.22,51.12v0.87h-0.37c-0.64,0-1.15,0.35-1.46,1.15v3.4h-0.87v-5.42h0.76l0.08,1.07
			c0.31-0.66,0.84-1.09,1.51-1.09C127.03,51.1,127.15,51.11,127.22,51.12z"/>
		<path class="st0" d="M135.26,49.76v0.75h-2.14v6.03h-0.9v-6.03h-2.14v-0.75H135.26z"/>
		<path class="st0" d="M140.31,54.01h-4.01c0.06,1.39,0.64,2,1.62,2c0.71,0,1.2-0.34,1.48-0.96h0.85c-0.33,1.04-1.16,1.65-2.33,1.65
			c-1.55,0-2.51-1.02-2.51-2.87c0-1.87,1.09-2.86,2.51-2.86c1.47,0,2.4,0.97,2.4,2.79L140.31,54.01L140.31,54.01z M139.45,53.4
			c-0.06-1.17-0.56-1.77-1.54-1.77s-1.52,0.68-1.61,1.77H139.45z"/>
		<path class="st0" d="M141.38,53.84c0-1.79,1.04-2.88,2.55-2.88c1.29,0,2.01,0.65,2.23,1.6h-0.87c-0.19-0.53-0.55-0.9-1.36-0.9
			c-0.98,0-1.68,0.76-1.68,2.17c0,1.43,0.68,2.15,1.66,2.15c0.66,0,1.2-0.32,1.42-0.95h0.87c-0.25,1.05-1.14,1.65-2.28,1.65
			C142.36,56.69,141.38,55.66,141.38,53.84z"/>
		<path class="st0" d="M151.95,53.02v3.52h-0.87v-3.47c0-0.87-0.32-1.4-1.13-1.4c-0.68,0-1.16,0.4-1.54,0.88v3.99h-0.87v-7.06h0.87
			v2.32c0.44-0.55,0.99-0.84,1.71-0.84C151.35,50.97,151.95,51.82,151.95,53.02z"/>
		<path class="st0" d="M158.09,53.02v3.52h-0.87v-3.47c0-0.87-0.32-1.4-1.13-1.4c-0.68,0-1.16,0.4-1.54,0.88v3.99h-0.87v-5.42h0.8
			l0.06,0.7c0.44-0.54,0.99-0.86,1.73-0.86C157.49,50.97,158.09,51.82,158.09,53.02z"/>
		<path class="st0" d="M160.71,49.09v1.05h-0.92v-1.05H160.71z M159.83,56.54v-5.42h0.87v5.42H159.83z"/>
		<path class="st0" d="M166.01,56.54l-1.84-2.74l-0.83,0.82v1.91h-0.86v-7.06h0.86v4.14l2.52-2.5h1.03l-2.11,2.09l2.2,3.33h-0.97
			V56.54z"/>
	</g>
</g>
<g id="Ebene_1_00000154414771117550884050000005256133866321405365_">
	<polygon class="st0" points="107.52,33.09 107.52,28.05 83.83,28.05 83.83,33.09 92.75,33.09 92.75,56.54 98.6,56.54 98.6,33.09 	
		"/>
	<path class="st0" d="M74.02,28.05v11.17H62.4v-6.88l12.62-12.83l-0.74-0.73L48.64,44.85c-0.9-1.37-2.4-2.27-4.61-2.76v-0.08
		c3.3-1.24,4.94-3.36,4.94-6.64c0-4.36-3.27-7.32-10.31-7.32h-10.2v28.49h8.68L25.13,68.75l0.74,0.73l30.67-31.19v18.25h5.85V44.26
		h11.63v12.29h5.85v-28.5H74.02z M34.31,32.85h4.42c3.22,0,4.62,1.04,4.62,3.4c0,2.44-1.47,3.52-4.9,3.52h-4.14V32.85z M34.31,44.42
		h4.18c3.74,0,5.22,1.16,5.22,3.72c0,2.4-1.43,3.56-5.06,3.56h-4.34V44.42z"/>
	<path class="st0" d="M142.41,43.12"/>
</g>
</svg>
